<?xml version="1.0" standalone="no"?>
<!DOCTYPE svg PUBLIC "-//W3C//DTD SVG 20010904//EN"
 "http://www.w3.org/TR/2001/REC-SVG-20010904/DTD/svg10.dtd">
<svg version="1.0" xmlns="http://www.w3.org/2000/svg"
 width="254.000000pt" height="254.000000pt" viewBox="0 0 254.000000 254.000000"
 preserveAspectRatio="xMidYMid meet">
<metadata>
Created by potrace 1.14, written by Peter Selinger 2001-2017
</metadata>
<g transform="translate(0.000000,254.000000) scale(0.100000,-0.100000)"
fill="#000000" stroke="none">
<path d="M1187 2534 c-1 -1 -36 -5 -76 -8 -41 -4 -78 -9 -81 -11 -4 -2 -17 -6
-31 -9 -60 -12 -76 -17 -138 -37 -36 -12 -110 -44 -165 -72 -423 -216 -686
-638 -689 -1107 -1 -146 3 -187 27 -295 70 -303 237 -559 481 -738 84 -62 89
-65 185 -115 103 -54 244 -101 345 -116 23 -4 52 -8 65 -11 42 -8 241 -9 310
-1 194 22 411 106 580 225 90 62 256 231 314 319 49 74 134 236 141 269 2 10
10 36 18 59 15 41 42 159 52 224 7 49 7 255 0 315 -17 146 -84 347 -161 478
-195 336 -548 573 -924 622 -51 7 -247 14 -253 9z m239 -49 c147 -21 251 -53
379 -115 250 -121 449 -323 572 -580 48 -102 97 -268 108 -369 6 -56 6 -262 0
-296 -3 -16 -10 -57 -16 -90 -74 -419 -407 -794 -824 -928 -92 -30 -129 -38
-235 -52 -77 -11 -261 -8 -323 4 -29 6 -66 13 -83 16 -47 7 -182 53 -244 81
-262 122 -479 338 -601 599 -75 159 -112 328 -113 505 0 163 17 269 66 409 27
78 102 239 117 251 3 3 24 32 46 65 59 88 208 233 305 297 179 119 375 190
560 205 36 3 66 7 68 8 5 4 175 -3 218 -10z"/>
<path d="M548 2038 c-13 -34 24 -352 66 -572 18 -90 27 -60 -77 -241 -26 -44
-47 -87 -47 -95 0 -26 58 -129 102 -183 56 -69 158 -171 238 -238 102 -85 137
-125 144 -164 4 -21 16 -41 31 -51 14 -9 88 -29 166 -45 134 -27 145 -27 203
-14 33 8 77 17 96 20 19 3 58 13 87 21 43 12 53 20 62 46 6 17 11 39 11 49 0
9 30 44 66 76 37 32 81 72 99 88 18 17 46 42 61 56 90 82 189 197 223 259 35
65 33 73 -34 207 -69 135 -67 121 -45 253 5 30 12 75 15 100 3 25 8 52 10 60
2 8 6 42 10 75 4 33 10 87 13 120 8 69 8 163 -1 172 -27 26 -139 -66 -471
-386 l-45 -45 -228 -2 -228 -2 -85 83 c-157 151 -198 190 -261 245 -115 101
-171 135 -181 108z"/>
<path d="M993 358 c-14 -132 -2 -178 46 -178 20 0 134 54 173 81 24 18 29 27
26 58 -3 34 -6 37 -63 57 -71 25 -92 33 -123 45 -46 18 -50 13 -59 -63z"/>
<path d="M1475 391 c-100 -36 -100 -36 -103 -72 -3 -41 -1 -44 86 -93 106 -60
161 -56 163 12 3 104 -10 186 -31 188 -8 1 -60 -15 -115 -35z"/>
<path d="M1269 345 c-8 -36 -2 -50 25 -53 42 -5 54 3 49 32 -5 22 -11 26 -39
26 -19 0 -34 -2 -35 -5z"/>
</g>
</svg>
